<svg version="1" xmlns="http://www.w3.org/2000/svg" width="1106.667" height="1106.667" viewBox="0 0 830.000000 830.000000"><path d="M111.2 305.1c-34 7.1-62.3 28.3-77.9 58.5-3.8 7.3-8.6 20.4-9.8 26.4-4.3 21.8-2.8 45.3 4 63.4 22.3 59.2 86.9 88.4 146 66.1 14.5-5.4 26.6-13.4 39.1-25.9 7.3-7.3 17.9-21.4 16.9-22.4-.2-.2-3.6.1-7.6.8-6.8 1.2-7.7 1.6-12.9 6.5-15.4 14.7-36.9 25.2-54.7 26.9-9.8 1-13.8 1-13.7.3.9-5.3 2.9-12.9 3.6-13.3.5-.3 3.5-1 6.6-1.4 5.4-.8 6-.7 11.2 2.5 3.1 1.8 6.9 3.6 8.5 4 2.9.6 2.9.6 1-1-1.1-.9-3.1-2.5-4.5-3.7l-2.4-2.2 5.4-1.1c5.7-1.1 11.2-3.6 14.3-6.3 3.3-2.9 1.7-3.2-3.3-.7-2.7 1.4-5.9 2.5-7 2.5-2 0-2-.1-.4-3.3.9-1.7 2.3-4 3.2-5 1.9-2.1 1.4-2.7-1.5-1.6-1.3.4-3.5 3.1-5 5.9l-2.8 5-5.7-.3c-7-.4-7.8-1-3.8-2.7 3.4-1.4 4-3 1-3-2 0-2-.1-.5-3.1 1.6-2.9 1.5-3-.3-2-1.1.6-2.6 2.1-3.5 3.5-1.3 1.9-2.3 2.4-4.9 2.1-1.8-.2-3.9-.4-4.7-.4-2.1-.1 2.6-4.9 6.9-7.1 7.1-3.5 18.1-6.2 23.8-5.7 5.8.5 11.4-.6 14.7-2.9 1.8-1.3 1.1-1.4-5.5-.8l-7.5.7 3.2-3.2c3.6-3.7 9.3-11.9 9.3-13.5 0-.6-2.1 1.2-4.7 3.9l-4.8 5-.5-5c-.4-4.4-.6-4.7-1.7-3-.6 1.1-1.4 4.2-1.8 6.9-.7 4.3-1.1 5-4.2 6.2-1.9.8-4.7 1.7-6.2 2-3.1.6-3 .9-1.7-8.2.6-4.1 1.3-5.4 3.5-6.7 3.6-2.1 11.1-9.4 11.1-10.8 0-.6-1.7.2-3.7 1.8-7.1 5.6-8.5 5-6.3-2.6.5-1.9.7-3.7.4-4-.8-.8-2.7 2.7-4.4 8.4-1.2 3.7-2.1 5.1-3.7 5.3-1.5.2-2.3-.4-2.8-1.8-.6-1.8.3-3.1 4.4-6.9 4.6-4.3 6.4-7.1 4.4-7.1-.5 0-2.6 1.6-4.8 3.5-2.2 1.9-4.5 3.5-5.2 3.5-1.2 0-1-3.9.7-11.3.5-2.3.6-4.5.3-5-.6-1-3.2 3-3.3 5 0 .6-.5 2.4-1 3.9-.8 2-1.4 2.4-2.2 1.6-.7-.7-.4-2.8 1.2-7.4 2.8-7.9 4-26.7 1.5-23.4-.8 1.1-1.5 3-1.5 4.2 0 1.3-.4 3.3-.9 4.6-.5 1.3-1.7 5.3-2.6 9-1.3 5.3-2.1 6.8-3.5 6.8-3 0-5.9-5.8-9-17.8-.6-2.3-1.5-4-2-3.7-1.3.8-1.3 8.6 0 11.9.9 2.3.7 2.6-1.4 2.6-1.3 0-4-.7-6.1-1.6-2-.8-4-1.2-4.4-.9-1 1.1 5.8 6.3 10.4 8 3.1 1.2 4.6 2.7 6.4 6 2.2 4.2 2.3 4.6.7 7-.9 1.4-2.6 2.5-3.7 2.5-1.8 0-2-.4-1.4-2.3 1.3-4.1 1.7-8.7.7-8.7-.5 0-1.7 2.1-2.7 4.7-1 2.7-2.6 5.9-3.6 7.2l-1.9 2.3-1-2.6c-.5-1.5-1.3-3.8-1.6-5.2-.3-1.3-1-2.7-1.5-3-.5-.3-.9-2-.9-3.9 0-5.6-1.8-4.9-2.5.9-.8 6-.2 12.1 2 19.2.8 2.6 1.3 4.9 1.2 5.1-.7.6-7.7-1.9-8.4-3-.4-.6-.8-2.8-1-4.7-.4-6.1-1.4-10-2.3-10-1.1 0-1.1.1-1.4 4.7-.1 1.8-.5 3.5-.9 3.9-.4.4-.7 2-.7 3.6 0 2.6-.3 2.9-2.2 2.3-1.3-.4-3.3-1.3-4.5-2.1-3.4-2.1-2.4-8.3 3-19.1 2.5-4.9 4.9-10.6 5.2-12.6.6-2.9 1.6-4.1 4.9-6.1 5.2-3 7.2-5.3 8.2-9l.7-3-4.5 3.7c-3.7 3-7.5 4.7-7.9 3.4 0-.1-.2-2-.5-4.2-.7-6-1.9-9.8-3.1-10.2-.8-.3-1.1 2.8-1 10.4.2 10 0 11.3-2.7 17l-2.8 6.2-3.1-1.3c-2.9-1.1-3.1-1.6-3.5-7-.3-6.1-2.4-12.6-4-12.6-.5 0-.7 3.4-.4 7.6.5 7.2.4 7.6-1.4 6.6-1.1-.6-4.1-3.3-6.8-6.2-2.6-2.8-5.1-4.9-5.3-4.6-1.9 1.8 11 17.3 17.5 21.1l2.9 1.8-2.3 5.8c-1.3 3.2-2.4 6.8-2.4 7.9 0 1.9-.1 1.9-4.2.3-3.5-1.3-7.5-3.6-10.7-5.9-.2-.2-.5-3.5-.7-7.3-.3-6.1-1.8-12-2.9-10.9-.2.1-.6 2.7-.9 5.7-.3 3-.8 5.7-1.1 6-.6.6-2.6-1.9-6.6-8.2-1.7-2.6-3.5-4.7-3.9-4.7-2.5 0 5.1 15.2 10.2 20.7l3 3.1-4.8-.5c-2.7-.3-6.4-1.1-8.3-1.9-4.2-1.8-5.1-1.8-5.1 0 0 2.6 9.9 6.5 18 7.1 5.1.4 9.7 1.6 14.5 3.6 18.7 8.1 19 8.3 19.8 13.4.8 4.6 1.8 6.8 4.5 9.7 3.4 3.7 2.5 4.8-2.9 3.2-4.1-1.2-4.7-1.8-6.7-6.6-2.2-5.3-7.3-11.9-7.9-10.2-.2.5.8 3.6 2.1 6.9 1.4 3.2 2.2 6.3 1.9 6.8-.6 1.1-15.2.3-16.2-.9-.4-.5-1.6-3.1-2.6-5.8-1.9-5.1-7.1-11.9-8.5-11.1-.5.3.1 2.6 1.2 5.2 2.8 6.4 3.9 10.3 2.7 10.3-1.8 0-10.4-4.8-12.9-7.1-4.8-4.5-13.5-24-15.5-34.4-5.9-31.7 2.8-62 24.5-84.8 19.8-20.9 44.9-30.8 74.5-29.4 27.2 1.3 50.4 13.4 69.3 36.1 1.3 1.6 4.4 6.1 6.8 10.2 2.5 4 4.8 7.5 5.2 7.8.4.2 2.1.1 3.9-.1l3.2-.5-2.6-5.2c-10.8-21.3-31.5-41.4-52.8-51.2-9.5-4.3-14.6-6-25.9-8.3-12.8-2.6-30.8-2.6-43.4 0zm40.2 131.4c2.3 1.8 1.5 3-2.2 3.3-2.9.2-3 .1-1.9-2.3 1.4-2.9 1.6-2.9 4.1-1zm-16.4 9.4c-1.3 2.6-2.7 3.4-3.5 2.1-.8-1.4 1.3-4 3.2-4 1 0 1.1.4.3 1.9zm20.6 3.6c3.4 9.9 3.4 10.2.3 13.5-1.6 1.6-3.3 3-3.9 3-.5 0-1-2.6-1.2-5.7-.2-3.4-.8-5.8-1.5-6.1-1.5-.4-4.8 6.6-5.8 12.5-.7 4.7-3.2 6.4-5.2 3.7-1.7-2.4-1.7-2.7 1.1-8.2 2.9-5.8 4.2-11.2 2.7-11.2-.7 0-1.6 1.2-2.1 2.6-1.4 3.5-4.9 8.4-6.1 8.4-1.7 0-.9-2.1 3.1-8 3.4-5 4.7-6.1 8.7-7.4 7-2.1 8.3-1.7 9.9 2.9zm-31.8 10c.6.4-1.1 3.5-1.9 3.5-1 0-7.8-7.1-7.9-8.2 0-.5 7.4 3.1 9.8 4.7zm-8.9 9.1c1.2 2 2 3.8 1.8 4.1-.5.4-4.7-6-4.7-7.1 0-1.4.9-.4 2.9 3zm17.2 2c1.2 2.5 1.9 4.7 1.7 4.8-5.6 3.7-8.8 4.6-8.8 2.6 0-1.1 4.4-12 4.8-12 .2 0 1.2 2.1 2.3 4.6zm-48.8 8.8c3.4.8 3.4 1.9.1 3.5-2.3 1-3 .9-5.2-1.1-7.6-6.8-8.2-8.1-2.5-5.3 2.6 1.3 6 2.6 7.6 2.9zm22.3 4.1c7.8 2.3 8.5 3.1 9 11.3.4 5.5.2 7.2-.8 7.2-3.8 0-28.8-13-28.8-14.9 0-1.4 8.4-4.8 12.1-5 1.9 0 5.8.6 8.5 1.4zm30.8 2c.3.8.2 1.5-.3 1.5s-1.4-.7-2.1-1.5c-1-1.2-1-1.5.3-1.5.8 0 1.7.7 2.1 1.5zm12.6-.1c0 .2-1.3.6-3 .8-1.6.3-3 .1-3-.4 0-.4 1.4-.8 3-.8 1.7 0 3 .2 3 .4zm-16.3 8.2c1.9 3.4 2.1 4.5 1.1 8.1-.9 3.7-1.3 4.1-3.7 3.8-1.4-.2-3.3-.4-4.1-.4-2.3-.1-1.9-10 .6-13.4 2.4-3.3 3.4-3 6.1 1.9z"/><path d="M134 331.7c0 .5-1.9.8-4.1.7-10.2-.3-24.5 5.3-28 10.9-2.9 4.9-2.5 7.7 1.8 11.4 2.1 1.7 3.6 3.3 3.3 3.6-.3.3-2.4-.4-4.8-1.5-2.3-1.1-4.5-1.8-4.8-1.5-1.1 1-.6 6.4 1.1 12l1.7 5.9 3-3.1c3.5-3.5 5.3-3.4 2 .2-1.1 1.2-2.6 3.5-3.2 5.1-1.2 3.4.3 6.2 5.4 10 4.6 3.5 19.3 3.7 23.3.4.8-.7 2.1-1.3 2.8-1.4.7-.1 2.2-.5 3.4-.9 2.6-.8 2.6-.1 0 3.6-1.1 1.6-1.7 2.9-1.2 2.9 1.1 0 5.2-2.8 8.4-5.7 1.5-1.3 5.1-3.6 8.2-5.1 6.5-3.2 16.7-11.8 16.7-14.1 0-.9-1.3-2.9-2.9-4.4-1.6-1.5-4.3-5.3-5.8-8.5-7.1-14-11-19.3-12.5-16.9-.6.9-.8.9-.8 0 0-.7-1-1.7-2.1-2.4-1.5-.8-1.9-.8-1.5 0 1 1.5-.5 1.3-2.8-.4-2.3-1.8-4-2-3-.4.4.8 0 .8-1.5 0-1.1-.7-2.1-.8-2.1-.4zM187.2 378.7c-3.5 5.1-20.2 33.9-20.2 34.9 0 .5 2.4 1 5.3.9 5 0 5.3-.2 7.9-4.1 2.5-4.1 2.8-4.2 8.2-4.3h5.5l.8 4.2.9 4.2h10.9l-.2-3.1c-.1-1.8-1.3-9.9-2.7-18.2-1.4-8.2-2.6-15.5-2.6-16.1 0-.7-2.2-1.1-5.9-1.1-5.4 0-6.2.3-7.9 2.7zm6.3 15l.7 4.3H186l2.8-4.9c1.5-2.8 3-4.7 3.3-4.3.4.4 1 2.6 1.4 4.9zM223 377.6c-7.1 3.1-10.3 7.7-12.5 18-2.1 10 .8 16.7 7.8 18.1 2.2.4 2.7 1.1 2.7 3.4 0 3.4 3.1 6.9 6.3 7 4.3.2 7.2-.3 7.9-1.5 1.2-1.8.9-5.4-.4-5.3-5.3.2-6.7-1.8-2-2.9 7.8-1.9 13.1-7.3 15.8-16 3-9.9 1.1-17.9-4.9-20.7-4.4-2.1-15.9-2.2-20.7-.1zm13.5 8.8c2.4 1.7 2.2 8.6-.3 13.5-3.2 6.2-12.7 7.4-14.6 2-1.4-4 1.8-13.5 5.2-15.3 3.4-1.9 7.3-2 9.7-.2zM256.7 378.2c-3.2 14-4.8 24.2-4.3 27.1 1.5 7.8 11.9 11.7 23.1 8.6 7.3-2.1 11.8-7 13.1-14.7.3-1.5 1.4-6.6 2.5-11.4 2.7-12.3 2.8-11.8-3.5-11.8h-5.5l-1.1 5.7c-4.3 21.6-5.3 23.5-11.3 23.5-2.1 0-4.4-.5-5.2-1.2-1.6-1.3-1.5-2 1.1-14.3.8-3.9 1.7-8.7 2-10.5l.5-3.2h-5.4c-4.9 0-5.5.3-6 2.2zM297.1 394.6c-6.1 10.3-11.1 18.9-11.1 19.3 0 .7 10.7.8 11.3 0 .2-.2 1.4-2.1 2.6-4.1 2.2-3.7 2.3-3.7 7.9-3.5l5.6.2.8 4.1.8 4 5.3-.2c6.7-.2 6.9-.3 6.3-1.2-.2-.4-1.6-7.9-3.1-16.7-3.8-22.8-2.7-20.5-9.5-20.5h-5.9l-11 18.6zm13.4 3.5c-4.6.8-5-.4-1.9-5.7l2.8-4.8 1.1 5 1 4.9-3 .6zM338.7 376.7c-.3.5-1.2 4.4-2.1 8.8-.9 4.4-2.3 11.4-3.2 15.5-.9 4.1-1.7 8.8-1.8 10.4-.1 2.9 0 3 5.1 3.1l5.1.1 1.2-5.7c1.1-5.1 1.4-5.6 3.8-5.5 2.3.1 2.8.7 4 5.6l1.3 5.5h5.9c4.9 0 5.9-.2 5.5-1.5-.2-.8-.8-3.3-1.3-5.5s-1.1-4.5-1.3-5c-.2-.6 1.5-2.8 3.8-5 6.6-6.6 6.9-16 .5-19.7-2-1.2-5.8-1.6-14.4-1.7-6.4-.1-11.8.2-12.1.6zm19.1 11.3c.4 3.7-1.8 6-6.5 6.6-2.3.2-4.3.1-4.6-.3-.2-.4 0-2.7.5-5.1l.9-4.3 4.7.3c4.2.3 4.7.6 5 2.8zM372.4 395c-2.2 10.4-3.8 19-3.5 19.1 2.7.4 9.3.4 10 0 .5-.3 2.5-8.5 4.5-18.1 2-9.6 3.9-18.1 4.1-18.8.3-.9-1.2-1.2-5.3-1.2h-5.8l-4 19zM392.5 377.2c-1.1 3.2-4.9 21.7-5 24.8-.3 5.8 2.5 9.8 8.4 11.8 6.9 2.4 17.6.8 22.3-3.5 2.2-1.9 5.4-8.2 6.2-12.3.8-4 3.5-17.3 4-19.8.5-2.2.3-2.3-5.1-2l-5.6.3-1.8 7.5c-.9 4.1-1.7 7.6-1.7 7.8-.1 1.4-1.5 7.3-2.4 9.5-1.1 2.9-5.5 4.7-9.6 3.9-3.3-.6-3.7-2.5-2.3-9.6.6-3.3 1.4-7.5 1.7-9.1.4-2.8.8-4.2 2-8.8.5-1.5-.2-1.7-5.1-1.7-3.5 0-5.7.5-6 1.2zM433.5 377.3c-.2.6-.9 3.7-1.4 6.7-.6 3-1.8 8.9-2.7 13-3.9 18.7-4 17.4 2.3 17.5l5.2.2 1.6-7.6c2.4-11 2.5-11.2 4.4-5.1 1.5 4.9 2 5.5 4.6 5.8 2.6.2 3.5-.5 6.9-5.3 2.1-3.1 3.9-5.5 4.1-5.3.2.2-.5 4-1.5 8.5-1 4.6-1.4 8.3-.9 8.4.5 0 3 .1 5.6.2l4.7.1 2.8-13c3.1-14.4 3.5-16.3 4.4-21.7l.7-3.7h-10.9l-6.3 9c-3.5 4.9-6.7 9-7.1 9-.3 0-1.7-3.9-3.1-8.8l-2.4-8.7-5.3-.2c-3.5-.2-5.4.1-5.7 1zM483.5 377.7c-4 2.2-4.9 3.2-6.3 7.2-2.8 7.9-.7 10.9 10.6 15.1 2.5 1 3.2 1.8 3 3.4-.2 1.7-1.1 2.2-4.2 2.4-2.2.2-6-.2-8.4-.8-2.4-.6-4.7-.8-5-.5-.3.2-.6 2.4-.6 4.7-.1 3.7.2 4.2 2.8 4.9 1.6.4 6.3.7 10.6.5 6.1-.2 8.3-.7 10.8-2.5 4.1-2.9 6.2-7 6.2-12 0-4.7-2.5-7.1-10.1-9.6-2.9-1-4.9-2.3-4.9-3.1 0-1.6 3.6-3.3 6-2.9.8.1 3.6.5 6.2.9l4.6.7.7-4.2c.5-2.8.3-4.4-.5-4.9-.7-.4-5.1-.8-9.8-.9-6.3 0-9.5.4-11.7 1.6zM509.4 377.7c.4 1 2.3 6.5 4.4 12.2l3.8 10.5-1.4 6.3c-.8 3.5-1.1 6.7-.8 7 .4.4 2.8.7 5.5.8l4.9.1 1.3-6c1.6-8 1.7-8.2 12.1-21.4l8.9-11.2h-12.6l-3.9 5.5c-6.8 9.5-6.9 9.5-9.1 1.5l-1.9-7h-5.9c-5.1 0-5.8.2-5.3 1.7zM551.3 377.9c-6.1 3.8-8.6 10.6-5.9 15.9 1.2 2.2 2.9 3.5 6.6 4.7 2.8.9 5.7 2.4 6.5 3.2 3.7 3.7-4.1 5.6-12.8 3.2-2.2-.6-4-.9-4.2-.7-.2.2-.7 2.2-1.1 4.5-.6 3.8-.5 4.1 2.5 5.1 1.7.6 6.7 1 11.1.8 6.8-.2 8.3-.6 11.5-3 3.9-3 5.6-6.3 5.8-11.3.1-4.3-2.4-6.9-9.5-9.4-10.6-3.9-5.1-8 7.3-5.5l3.7.8.7-4.2c.5-2.9.3-4.5-.5-5-.7-.4-5.1-.8-9.8-.9-7.1-.1-9.3.2-11.9 1.8zM576.5 378.3c-1.3 6.1-1.3 6.1 3.7 6.2 2.6.1 5 .3 5.2.6.3.2 0 2.5-.5 4.9-.6 2.5-1.3 5.6-1.5 7-.3 1.3-1.2 5.5-2 9.3-.8 3.7-1.4 7.1-1.4 7.5 0 .4 2.4.7 5.4.8l5.5.1 1.5-7.1c2-8.7 2.5-11.2 3.2-15.5 1.2-7.1 1.8-7.8 6.8-7.6 5.1.3 6-.5 6.9-5.3l.7-3.2-16.5.1c-16.1 0-16.5.1-17 2.2zM612.6 376.8c-.3.5-.8 2.4-1.1 4.3-.3 1.9-2 9.9-3.6 17.7-1.7 7.9-2.8 14.7-2.4 15 .3.4 6.9.7 14.5.7h13.8l.6-3.9c.4-2.4.3-4.2-.4-4.6-.6-.3-4.4-.5-8.6-.2l-7.5.4.4-2.6c.4-3.6.9-3.8 8.6-4 3.9-.1 7.2-.4 7.5-.6.2-.3.7-2.2 1.1-4.3l.7-3.7h-15.4l.7-2.7c.4-1.6.8-3 1-3.2.2-.2 4.3-.4 9-.4s8.5-.2 8.5-.6c0-.3.4-2.3.9-4.4l.9-3.7h-14.3c-7.9 0-14.6.4-14.9.8zM645.6 377.7c-.5 1.6-3 13.2-4.2 19.3-.3 1.3-1.2 5.5-2 9.3-.8 3.7-1.4 7.2-1.4 7.6 0 1.4 10.2.6 11-.9.8-1.5 3.3-12.5 3.3-14.8.1-2.7 1.3-.9 2.7 4 1.4 4.8 1.8 5.3 4.5 5.6 2.6.2 3.5-.4 6.9-5.3 2.1-3.1 3.9-5.5 4.1-5.3.2.2-.5 4-1.5 8.5-1 4.6-1.5 8.4-1.1 8.4 2.5.5 9.2.5 10 0 .5-.3 1.1-2 1.4-3.6.8-3.9 1.3-6.7 4.3-20.5 1.3-6.3 2.4-12.1 2.4-12.8 0-.8-1.7-1.2-5.4-1.2h-5.4l-5.2 7.7c-8.8 12.9-8 12.8-11 2.1l-2.5-9.3-5.2-.3c-4.2-.2-5.2 0-5.7 1.5zM696 377.3c-7.6 3.5-10.5 13.1-5.5 18.2 1.4 1.4 3.1 2.5 3.8 2.5.7 0 3.1.9 5.5 2 3.8 1.7 4.2 2.2 3.2 4-1.2 2.3-6.9 2.7-13.3.9-2.2-.6-4.1-.8-4.4-.6-.2.3-.7 2.3-1 4.5-.7 5.1.1 5.5 10.2 5.8 13.3.5 20.5-4.5 20.5-14.3 0-4.9-2.4-7.3-10.1-9.8-5.2-1.8-6.4-4-2.7-5.4 2.6-.9 10.8-.2 12.5 1.1.8.7 1.5-.1 2.2-2.9 1.5-5.3 1.4-6-1.1-6.7-3.8-1-17.1-.5-19.8.7zM357.1 430.5c-.5 2.2-1.3 5.5-1.6 7.4-.3 1.9-.8 3.8-1 4.2-1 1.5 10.7 2 12.3.4 1.2-1.1-2-2.3-5-1.8-2.6.4-2.9.2-2.6-1.9.2-1.9.9-2.3 3.8-2.3 2.4 0 3.6-.5 3.8-1.6.2-1.2-.5-1.5-3.3-1.3-2.5.2-3.5-.1-3.5-1.1 0-1.9 1.6-2.7 5.7-3.1 3.6-.3 5.1-1 4.1-1.9-.3-.3-3-.7-6.1-.8l-5.6-.2-1 4zM403.1 427.6c-5.7 2.4-8 15.4-2.6 15.4.7 0 1.6 1.2 1.9 2.6.5 1.9 1.2 2.4 2.9 2.2 3.2-.4 4-2.2 1.4-2.9-2.1-.6-2-.7.8-1.8 3.4-1.3 5.5-4.1 6.6-8.9 1.3-6.1-4.2-9.4-11-6.6zm7.1 6c-.4 4.5-.9 5.4-3.8 6.4-3.7 1.4-5.8-.4-5-4.4.9-4.5 3.2-6.5 6.4-5.7 2.2.7 2.7 1.3 2.4 3.7zM529 427c-2.7.6-5.1 4.4-4.3 6.6.3.7 2 1.9 3.9 2.6 1.9.6 3.4 1.5 3.4 2 0 1.4-3.7 2.7-5.9 2.1-1.4-.4-2.6-.1-3.2.8-.6 1-.1 1.6 2.1 2 4.3.9 7.9-.1 9.6-2.6 2-3 .9-5.2-3.2-6.7-1.9-.6-3.4-1.5-3.4-1.9 0-1.3 2.4-2.4 5.4-2.4 2.8 0 5.1-2.4 2.4-2.6-.7 0-2-.2-2.8-.3-.8-.2-2.6 0-4 .4zM575.2 426.8c-1.2.2-3.4 1.9-4.8 3.8-2.2 2.8-2.5 4.1-2.1 7.1.9 5.1 6 7.5 11 5.1 2.6-1.3 2-2.8-1-2.7-6.6.4-7.8-1-5.9-6.3 1.3-3.4 4.8-5.1 8.1-3.8 2.1.8 2.5.7 2.5-1 0-1.1-.3-2.1-.7-2.1-2.2-.4-5.1-.4-7.1-.1zM637.3 426.7c-2.4.5-5.3 3.8-5.3 6 0 .7 1.8 2.2 4 3.3 2.2 1.1 4 2.5 4 3 0 1-1 1.2-6.4 1.4-3.4.1-4.6 2.1-1.8 2.8 3 .8 8.1.1 9.8-1.2.9-.8 1.4-2.5 1.2-4.4-.2-2.5-.9-3.2-3.5-4-1.8-.5-3.3-1.5-3.3-2.2 0-1.4.7-1.6 5.9-1.8 2.6-.1 4.3-2.6 1.8-2.6-.9 0-2.1-.2-2.9-.4-.7-.2-2.3-.1-3.5.1zM665.7 427.2c-5.1 1.8-4.6 7.9.8 9.2 1.4.4 2.5 1.3 2.5 2.1 0 1.5-.4 1.7-5.4 1.9-3.2.1-4.9 2.5-1.9 2.8 1 0 2.5.2 3.3.3 7.9.7 10.9-8 3.5-9.9-1.4-.4-2.5-1.3-2.5-2.1 0-1.5 1.5-1.9 5.8-1.5 1.4.1 2.2-.4 2.2-1.4 0-.9-.6-1.6-1.2-1.7-.7 0-2-.2-2.8-.3-.8-.2-2.7.1-4.3.6zM254.1 433.6c-1.3 7.4-.8 8.9 3.8 9.9 6.3 1.4 10-2.5 11.6-12.3.5-3.4.4-4.2-.8-4.2-1.6 0-2.4 1.7-3.3 6.7-.8 4.3-3 7-5.6 6.9-1.9-.1-2.3-.6-2.3-3.6.1-1.9.4-5 .9-6.8.7-2.8.5-3.2-1.2-3.2s-2.2 1.1-3.1 6.6zM271.9 435c-.9 4.4-1.3 8-1 8.1 4.9.7 11.1.2 11.1-.8 0-1.1-3.6-1.9-6.4-1.4-.9.2-.5-4 .9-10.7.6-2.7.5-3.2-1.1-3.2s-2.2 1.4-3.5 8zM283.2 428.2c.3.7 1.1 1.3 1.9 1.4.8 0 1.7.2 2 .2.4.1.1 3-.6 6.4-1.4 6.7-1.2 8 .9 7.2.8-.3 1.9-3.4 2.6-7 .8-4.1 1.7-6.4 2.6-6.5.8-.1 1.9-.2 2.6-.3.6 0 1.3-.7 1.6-1.4.3-.9-1.5-1.2-6.8-1.2s-7.1.3-6.8 1.2zM298 434.2c-.8 4-1.5 7.8-1.6 8.4-.2 1.2 2 1.3 3.1.2.3-.3.8-1.8 1.1-3.4.3-1.6.9-4.7 1.4-6.9 1.3-5.4 1.3-5.5-.8-5.5-1.5 0-2.1 1.4-3.2 7.2zM305.7 430.7c-.8 5.1-1.7 9.5-2.2 11-.4 1.3 2.2 2.6 2.9 1.4.3-.4.8-2.7 1.2-4.9.7-4.6 1.9-4.7 2.9-.2.9 3.9 1.9 3.8 5-.7 2.6-3.9 3.2-3.1 1.6 2.4-.8 2.7-.6 3.2 1 3.6 1 .3 1.9.2 2-.1.1-1 .6-3.5 1.8-9.2 1.4-6.7 1.4-7-.6-7-1 0-3.2 2.1-5 4.7-3.2 4.5-3.2 4.6-4.1 2.2-.5-1.3-1.1-3.3-1.3-4.4-.3-1.1-1.4-2.1-2.5-2.3-1.8-.3-2.2.4-2.7 3.5zM330.9 429.7c-.7 1.6-2.8 5.1-4.6 8-2.6 4-2.9 5.2-1.8 5.7.8.3 2.1-.4 3-1.7 1.5-2.1 7.4-3.4 7.6-1.6.1.5.2 1.4.3 2.1.2 1.7 3.6 1.9 3.6.2 0-.9-.5-4.6-1.1-8.5-1.1-6.1-1.5-6.9-3.4-6.9-1.4 0-2.7 1-3.6 2.7zm4.1 5.3c0 .9-.9 1.6-2 1.7-2.3.2-2.4.2-.8-3.2.8-1.8 1.4-2.2 2-1.3.4.7.8 2 .8 2.8zM341.3 428.2c.2.7 1.4 1.2 2.5 1.2 2.6-.2 2.5-.6.8 7.3-1.3 5.9-1.2 6.3.4 6.3 1.8 0 3-1.9 3-4.8 0-.9.5-3.4 1-5.4.8-2.8 1.5-3.6 3-3.3 1 .2 2.4-.3 3.1-1.1 1-1.2 0-1.4-6.6-1.4-5.7 0-7.6.3-7.2 1.2zM383.8 434.7c-3.1 5.3-4.2 8-3.4 8.5.6.5 1.9-.2 3-1.5 2.3-2.7 7.6-3.2 7.6-.6 0 1.8 2.6 3.3 3.5 2 .2-.5-.1-4.3-.7-8.5-1.1-6.7-1.5-7.6-3.4-7.6-1.6 0-3.2 1.9-6.6 7.7zm6.7-.8c.2 1.3-.2 2.4-1.1 2.8-2.3.9-2.9-.4-1.4-3.2 1.5-2.8 1.9-2.7 2.5.4zM417.2 433.1c-1.3 7.3-.5 9.4 3.8 10.2 6.4 1.3 10.1-2.4 11.4-11.6.6-3.8.4-4.7-.8-4.7-1.8 0-3.1 3.6-3.5 9.7-.1 1.9-4.6 4.4-6.5 3.7-1.8-.7-1.8-3.9 0-10.8.5-2.1.3-2.6-1.3-2.6s-2.2 1.1-3.1 6.1zM435.9 435c-4.5 7.7-4.6 8-2.4 8 1.4 0 2.6-.7 2.9-1.8.9-2.8 6.5-2.5 7.2.4.4 1.5 1.1 2 2.5 1.7 1-.3 1.7-.8 1.4-1.2-.2-.4-.7-2.7-1-5.2-.3-2.4-.8-5.3-1-6.4-.2-1.1-.4-2.3-.4-2.8-.1-.4-1.1-.7-2.3-.7-1.8.1-3.4 1.9-6.9 8zm7.1-1.2c0 2.1-.5 2.8-2 2.9-2.4.2-2.5-.5-.4-3.5 2-2.9 2.4-2.8 2.4.6zM453.9 427.2c0 .2-.2 1.4-.5 2.8-.2 1.4-.9 4.6-1.5 7.2-1.2 5.3-.5 7.6 1.7 5.7.8-.6 1.4-2 1.4-3 0-2.9 3.8-2.4 4.6.5.6 2.6 3 4.1 3.9 2.6.3-.4.1-1.9-.4-3.2-.7-1.9-.5-2.7.9-3.5 2.3-1.5 3.4-6.1 1.9-7.9-.7-.9-3.1-1.4-6.5-1.4-3 0-5.4.1-5.5.2zm9.1 3.8c0 2.6-1.5 4-4.2 4-2.6 0-2.9-.3-2.2-2.3.4-1.2 1.1-2.5 1.6-2.8 1.3-.8 4.8.1 4.8 1.1zM468.9 434.7c-1.2 5.6-1.3 8-.5 8.5 1.7 1.1 2.3-.1 4-7.5 2-8.5 2-8.7-.2-8.7-1.4 0-2.1 1.6-3.3 7.7zM477.2 427.7c.1.5-.4 3.2-1 6.1-1.3 5.6-.6 8.5 2.2 9.5 2.1.8 7.9-.3 9.7-1.9 1.6-1.5 4.5-13.1 3.5-14.1-1.1-1.2-3.6.8-3.6 2.8 0 7-3.6 11.8-7.7 10.2-1.5-.6-1.4-4.1.4-11.1.4-1.7.1-2.2-1.6-2.2-1.2 0-2 .3-1.9.7zM495.2 427.5c.3.3-.2 3.9-1.2 8-1.6 7.1-1.6 7.4.1 7.8 1.1.3 1.9.2 2-.1.5-3.9 1.2-6.9 1.9-8.1.8-1.3.9-1.3 1 .5 0 1.1.7 2.9 1.5 4 1.3 1.7 1.6 1.7 2.5.3.5-.9 1.8-2.7 2.9-4l2-2.4-1 3.8c-.6 2.2-.8 4.6-.4 5.5 1.1 2.8 2.9-.5 4.6-8.3 1.5-7.4 1.5-7.5-.5-7.5-1.4 0-3.1 1.5-4.9 4.5-1.6 2.5-3.3 4.3-3.7 4-.5-.3-1.1-2.3-1.5-4.5-.6-3.5-1-4-3.3-4-1.4 0-2.3.2-2 .5zM540.6 428.2c-.2.7-1 4.3-1.8 8-1.5 6.5-1.4 6.8.3 6.8 1.1 0 2.1-.9 2.4-2.3.5-1.8 1.4-2.4 4.3-2.5 5.1-.4 7.4-2.7 7-7.1l-.3-3.6-5.8-.3c-4-.2-5.8.1-6.1 1zm9.4 3.2c-.1 2.8-3.7 5-6 3.6-.8-.5-1-1.7-.7-3.2.6-2.1 1.1-2.4 3.7-2 1.6.2 3 .9 3 1.6zM556.4 429.7c-.3 1.6-1.1 5.2-1.8 8-.7 2.9-.9 5.3-.4 5.4.4.1 2.4.1 4.3.1 6.6 0 7.7-.2 7.2-1.5-.2-.7-1.8-1.1-4.1-1-3.3.2-3.7 0-3.4-2 .2-1.8.9-2.2 4.1-2.1 2.5 0 3.7-.4 3.7-1.3 0-1.3-1.1-1.7-4.2-1.4-.9.1-1.9-.2-2.1-.6-1.1-1.8 1.2-3.6 4.9-3.8 2.1 0 4-.7 4.2-1.3.2-.8-1.5-1.2-5.7-1.2-5.8 0-6.1.1-6.7 2.7zM585.2 432.7c-.6 3.2-1.3 6.8-1.6 8-.3 1.3.1 2.4.9 2.7 1.8.6 2.2-.1 3-4.5.3-1.9 1-5 1.5-6.9 1.3-4.7 1.3-5-.8-5-1.4 0-2.1 1.3-3 5.7zM595.5 433.5c-2.1 3.6-4.2 6.8-4.7 7.1-1.5.9-.8 2.4 1.2 2.4 1 0 2.3-.7 2.8-1.5 1.5-2.8 5.3-2.7 7.9.1 1.3 1.5 2.6 2.4 2.9 2.1.3-.3 0-4.1-.7-8.6-1.1-7.2-1.5-8.1-3.4-8.1-1.6 0-3.1 1.7-6 6.5zm6 1.4c-.1.9-1.1 1.7-2.3 1.7-2 .1-2 0-.6-2.9 1.2-2.1 1.8-2.6 2.4-1.7.4.7.7 2 .5 2.9zM611.2 433.2c-2 11-2.3 10.1 3.1 10.2 5.5.1 8-.9 5.9-2.2-.7-.5-2.5-.7-3.9-.4-2.5.5-2.5.4-2-3.9.4-2.4.9-5.6 1.2-7.2.4-2.2.2-2.7-1.3-2.7s-2.1 1.2-3 6.2zM626.7 427.7c-.2.5-.7 2.4-1.1 4.3-1 5.8-1.4 7.4-2.1 9.1-.7 1.9 2.1 3.4 3.1 1.7.7-1.2 3.3-12.3 3.4-14.6 0-1.3-2.6-1.7-3.3-.5zM647 428.5c0 .8.3 1.4.8 1.4 3.7-.6 4 0 2.6 5.8-1.9 7.9-1.8 8.6.5 7.4 1.2-.7 2.2-3 3-7.1.7-3.3 1.7-6.1 2.4-6.2.7 0 1.8-.2 2.6-.2.8-.1 1.6-.7 1.9-1.4.3-.9-1.5-1.2-6.7-1.2-5.6 0-7.1.3-7.1 1.5zM252.8 452.5c-.2.1-3.4.5-7.2.9-8.2.8-23.3 4-31.9 6.7-8.4 2.8-25.4 11.4-29.7 15l-3.5 3.1 6-3c5.3-2.7 17.2-6.7 22.9-7.8 1.2-.2 3.4-.6 4.9-1 15-3.2 44.2-3.5 61.7-.4 3 .5 6.9 1.1 8.5 1.4 10.6 1.6 29.3 6.6 48 12.6 63.1 20.6 114.7 31 154.3 31.2 23.7.2 38.8-2.5 52.9-9.4 8.3-4 13.7-8 7.7-5.8-16.8 6.4-52.5 7.2-86.6 2-33.4-5.1-56.1-11.2-111.3-30-22.5-7.7-39.1-11.7-60-14.5-5.1-.7-36.1-1.6-36.7-1z"/><path d="M658.7 455.6c-.1.1-5.4.5-11.7.8-6.3.4-12.2.9-13 1.1-.8.2-3.7.6-6.5 1-7.5.9-15.5 2.3-31.5 5.5-8 1.6-15.6 3.1-17 3.4-1.4.2-5.2.9-8.5 1.5s-7.6 1.3-9.5 1.5c-1.9.3-5.7.8-8.5 1.1-8.1 1.2-9.6 1.3-18 2-4.4.4-9.1.9-10.5 1.1-13 2.1-86.2 2.1-97.7 0-1-.2-6.3-.7-11.8-1.1-5.5-.4-10.6-.8-11.5-1-.8-.1-3.7-.6-6.5-.9-10.8-1.4-13.1-1.7-14.5-2.1-2.6-.7-14.5-1.7-14-1.2.3.3 3.7 1.2 7.5 2 3.9.8 11.2 2.4 16.3 3.6 5.1 1.2 11 2.4 13 2.7 2 .3 4 .8 4.3.9.3.2 2.8.7 5.5 1 2.7.4 5.7.8 6.6 1.1 3.1.9 26.7 4.7 36.3 5.9 2.8.3 6.1.8 7.5 1 1.4.2 5.7.6 9.5 1 3.9.4 8.4.9 10 1.1 23 2.3 55 2.3 75.5-.2 4.5-.6 20.4-4 27-5.8 7.9-2.2 21-5.6 23.3-6 1.5-.3 5.3-1 8.5-1.6 9.6-1.7 10.3-1.9 22.2-3.4 27.4-3.6 57.8-4.7 85.5-3.1 9.4.5 12.3.7 23.5 2 18.6 2.1 41.2 6.5 50.9 10 5.1 1.8 5.4 1.1.4-1.1-26.9-11.3-67.9-20.7-100.3-23-8-.5-41.8-1.2-42.3-.8z"/></svg>